{"title":"Maverick   (Western Comedy 1994)   Mel Gibson, Jodie Foster &amp;amp","uid":9393528,"size":658395124,"categoryP":"video","categoryS":"movies","magnet":"?xt=urn:btih:b66949520eb5071c2e33a919824bce5e4b6d22b5&amp;dn=Maverick+++%28Western+Comedy+1994%29+++Mel+Gibson%2C+Jodie+Foster+%26amp&amp;tr=udp%3A%2F%2Ftracker.openbittorrent.com%3A80&amp;tr=udp%3A%2F%2Fopen.demonii.com%3A1337&amp;tr=udp%3A%2F%2Ftracker.coppersurfer.tk%3A6969&amp;tr=udp%3A%2F%2Fexodus.desync.com%3A6969","seeders":2,"leechers":0,"uploader":"BurtonW","files":1,"time":1387929932,"description":" &lt;a href=&quot;http://www.imdb.com/title/tt0110478/?ref_=fn_al_tt_1&quot; rel=&quot;nofollow&quot; target=&quot;_NEW&quot;&gt;http://www.imdb.com/title/tt0110478/?ref_=fn_al_tt_1&lt;/a&gt;\n\n\nA very good quality film.\n\n\nEnglish subtitles!\n\n\nStoryline:\n\nMaverick is recreated from the character James Garner created in the 1950s TV program. Maverick is a gambler who would rather con someone than fight them. He needs an additional three thousand dollars in order to enter a Winner Take All poker game that begins in a few days. He tries to win some, tries to collect a few debts, and recover a little loot for the reward, all with a light hearted air. He joins forces with a woman gambler with a marvelous, though fake, southern accent as the two both try and enter the game.\n\n\nTechnical info:\n\n\nGeneral:\n\nComplete name:                  : Maverick   (Western Comedy 1994)   Mel Gibson, Jodie Foster &amp; James Garner.mp4\n\nFormat                         : MPEG-4\nFormat profile                 : Base Media / Version 2\nCodec ID                       : mp42\nFile size                      : 628 MiB\nDuration                       : 2h 6mn\nOverall bit rate mode          : Variable\nOverall bit rate               : 693 Kbps\nRecorded date                  : UTC 1994-05-20 07:00:00\nEncoded date                   : UTC 2013-11-02 08:59:53\nTagged date                    : UTC 2013-11-02 16:36:14\n\n\nVideo:\n\nID                             : 1\nFormat                         : AVC\nFormat/Info                    : Advanced Video Codec\nFormat profile                 : &lt;a class=&quot;__cf_email__&quot; href=&quot;/cdn-cgi/l/email-protection&quot; data-cfemail=&quot;612c00080f212d554f51&quot;&gt;[email&amp;#160;protected]&lt;/a&gt;&lt;script cf-hash='f9e31' type=&quot;text/javascript&quot;&gt;\n/* &lt;![CDATA[ */!function(){try{var t=&quot;currentScript&quot;in document?document.currentScript:function(){for(var t=document.getElementsByTagName(&quot;script&quot;),e=t.length;e--;)if(t[e].getAttribute(&quot;cf-hash&quot;))return t[e]}();if(t&amp;&amp;t.previousSibling){var e,r,n,i,c=t.previousSibling,a=c.getAttribute(&quot;data-cfemail&quot;);if(a){for(e=&quot;&quot;,r=parseInt(a.substr(0,2),16),n=2;a.length-n;n+=2)i=parseInt(a.substr(n,2),16)^r,e+=String.fromCharCode(i);e=document.createTextNode(e),c.parentNode.replaceChild(e,c)}}}catch(u){}}();/* ]]&gt; */&lt;/script&gt;\nFormat settings, CABAC         : Yes\nFormat settings, ReFrames      : 16 frames\nCodec ID                       : avc1\nCodec ID/Info                  : Advanced Video Coding\nDuration                       : 2h 6mn\nBit rate mode                  : Variable\nBit rate                       : 528 Kbps\nWidth                          : 720 pixels\nHeight                         : 528 pixels\nDisplay aspect ratio           : 4:3\nFrame rate mode                : Variable\nFrame rate                     : 23.976 fps\nMinimum frame rate             : 7.993 fps\nMaximum frame rate             : 24.019 fps\nColor space                    : YUV\nChroma subsampling             : 4:2:0\nBit depth                      : 8 bits\nScan type                      : Progressive\nBits/(Pixel*Frame)             : 0.058\nStream size                    : 478 MiB (76%)\nWriting library                : x264 core 130 r2273 b3065e6\nEncoding settings              : Deleted\nEncoded date                   : UTC 2013-11-02 08:59:53\nTagged date                    : UTC 2013-11-02 16:36:14\nColor primaries                : BT.709\nTransfer characteristics       : BT.709\nMatrix coefficients            : BT.709\n\nAudio:\n\nID                             : 2\nFormat                         : AAC\nFormat/Info                    : Advanced Audio Codec\nFormat profile                 : LC\nCodec ID                       : 40\nDuration                       : 2h 6mn\nBit rate mode                  : Variable\nBit rate                       : 160 Kbps\nMaximum bit rate               : 306 Kbps\nChannel(s)                     : 2 channels\nChannel positions              : Front: L R\nSampling rate                  : 48.0 KHz\nCompression mode               : Lossy\nDelay relative to video        : 167ms\nStream size                    : 145 MiB (23%)\nLanguage                       : English\nEncoded date                   : UTC 2013-11-02 08:59:53\nTagged date                    : UTC 2013-11-02 16:36:13\n\nText:\n\nID                             : 3\nFormat                         : Timed text\nMuxing mode                    : sbtl\nCodec ID                       : tx3g\nDuration                       : 2h 6mn\nBit rate mode                  : Variable\nBit rate                       : 62 bps\nDelay relative to video        : 167ms\nStream size                    : 57.0 KiB (0%)\nLanguage                       : English\nEncoded date                   : UTC 2013-11-02 08:59:53\nTagged date                    : UTC 2013-11-02 16:36:13\n\n","torrent":{"xt":"urn:btih:b66949520eb5071c2e33a919824bce5e4b6d22b5","amp;dn":"Maverick+++%28Western+Comedy+1994%29+++Mel+Gibson%2C+Jodie+Foster+%26amp","amp;tr":["udp%3A%2F%2Ftracker.openbittorrent.com%3A80","udp%3A%2F%2Fopen.demonii.com%3A1337","udp%3A%2F%2Ftracker.coppersurfer.tk%3A6969","udp%3A%2F%2Fexodus.desync.com%3A6969"],"infoHash":"b66949520eb5071c2e33a919824bce5e4b6d22b5","infoHashBuffer":{"type":"Buffer","data":[182,105,73,82,14,181,7,28,46,51,169,25,130,75,206,94,75,109,34,181]},"announce":[],"urlList":[]}}